Coordinates
nRows=163
nColumns=2
inDegrees=yes
endheader
time	ankle_angle_r	
2.31235	  9.704590	
2.37485	  9.582520	
2.43734	  9.735107	
2.49984	  9.643555	
2.56234	  9.674072	
2.62483	  9.735107	
2.68733	  9.582520	
2.74982	  9.628296	
2.81232	  9.597778	
2.87482	  9.552002	
2.93731	  9.735107	
2.99981	  9.704590	
3.0623	  9.750366	
3.1248	  9.765625	
3.1873	  9.613037	
3.24979	  9.735107	
3.31229	  9.674072	
3.37478	  9.689331	
3.43728	  9.826660	
3.49978	  9.735107	
3.56227	  9.826660	
3.62477	  9.750366	
3.68726	  9.719849	
3.74976	  9.750366	
3.81226	  9.689331	
3.87475	  9.750366	
3.93725	  9.811401	
3.99974	  9.765625	
4.06224	  9.826660	
4.12474	  9.719849	
4.18723	  9.735107	
4.24973	  9.765625	
4.31222	  9.735107	
4.37472	  9.826660	
4.43722	  9.780884	
4.49971	  9.780884	
4.56221	  9.826660	
4.6247	  9.689331	
4.6872	  9.719849	
4.7497	  9.765625	
4.81219	  9.704590	
4.87469	  9.750366	
4.93718	  9.689331	
4.99968	  9.689331	
5.06218	  9.719849	
5.12467	  9.597778	
5.18717	  9.674072	
5.24966	  9.658813	
5.31216	  9.658813	
5.37466	  9.811401	
5.43715	  9.750366	
5.49965	  9.780884	
5.56214	  9.811401	
5.62464	  9.674072	
5.68714	  9.719849	
5.74963	  9.750366	
5.81213	  9.719849	
5.87462	  9.780884	
5.93712	  9.750366	
5.99962	  9.796143	
6.06211	  9.780884	
6.12461	  9.689331	
6.1871	  9.735107	
6.2496	  9.658813	
6.3121	  9.750366	
6.37459	  9.689331	
6.43709	  9.643555	
6.49958	  9.704590	
6.56208	  9.613037	
6.62458	  9.674072	
6.68707	  9.643555	
6.74957	  9.536743	
6.81206	  9.750366	
6.87456	  9.735107	
6.93706	  9.765625	
6.99955	  9.811401	
7.06205	  9.658813	
7.12454	  9.674072	
7.18704	  9.735107	
7.24954	  9.674072	
7.31203	  9.796143	
7.37453	  9.765625	
7.43702	  9.765625	
7.49952	  9.811401	
7.56202	  9.689331	
7.62451	  9.765625	
7.68701	  9.689331	
7.7495	  9.643555	
7.812	  9.750366	
7.8745	  9.719849	
7.93699	  9.689331	
7.99949	  9.704590	
8.06198	  9.643555	
8.12448	  9.613037	
8.18698	  9.552002	
8.24947	  9.658813	
8.31197	  9.674072	
8.37446	  9.674072	
8.43696	  9.704590	
8.49946	  9.658813	
8.56195	  9.658813	
8.62445	  9.628296	
8.68694	  9.628296	
8.74944	  9.719849	
8.81194	  9.704590	
8.87443	  9.582520	
8.93693	  9.689331	
8.99942	  9.643555	
9.06192	  9.735107	
9.12442	  9.735107	
9.18691	  9.658813	
9.24941	  9.826660	
9.3119	  9.780884	
9.3744	  9.765625	
9.4369	  9.811401	
9.49939	  9.689331	
9.56189	  9.735107	
9.62438	  9.735107	
9.68688	  9.719849	
9.74938	  9.811401	
9.81187	  9.765625	
9.87437	  9.750366	
9.93686	  9.796143	
9.99936	  9.628296	
10.0619	  9.719849	
10.1244	  9.597778	
10.1868	  9.719849	
10.2493	  9.735107	
10.3118	  9.658813	
10.3743	  9.689331	
10.4368	  9.582520	
10.4993	  9.628296	
10.5618	  9.628296	
10.6243	  9.597778	
10.6868	  9.674072	
10.7493	  9.643555	
10.8118	  9.704590	
10.8743	  9.735107	
10.9368	  9.521484	
10.9993	  9.643555	
11.0618	  9.704590	
11.1243	  9.628296	
11.1868	  9.750366	
11.2493	  9.674072	
11.3118	  9.780884	
11.3743	  9.811401	
11.4368	  9.704590	
11.4993	  9.780884	
11.5618	  9.719849	
11.6243	  9.719849	
11.6868	  9.826660	
11.7492	  9.780884	
11.8117	  9.811401	
11.8742	  9.765625	
11.9367	  9.689331	
11.9992	  9.735107	
12.0617	  9.735107	
12.1242	  9.780884	
12.1867	  9.719849	
12.2492	  9.704590	
12.3117	  9.796143	
12.3742	  9.658813	
12.4367	  9.597778	
